<svg xmlns="http://www.w3.org/2000/svg" width="18" height="18" viewBox="0 0 18 18">
  <g id="Group_19453" data-name="Group 19453" transform="translate(-176 -219)">
    <g id="Rectangle_4049" data-name="Rectangle 4049" transform="translate(176 219)" fill="none" stroke="#8c8c8c" stroke-width="1">
      <rect width="18" height="18" rx="9" stroke="none"/>
      <rect x="0.5" y="0.5" width="17" height="17" rx="8.5" fill="none"/>
    </g>
    <path id="Path_45044" data-name="Path 45044" d="M.729-.58A.781.781,0,0,1,.464.033a.856.856,0,0,1-.547.2A.835.835,0,0,1-.613.05.815.815,0,0,1-.9-.514l-.05-6.3a.918.918,0,0,1,.3-.522.792.792,0,0,1,.514-.174.869.869,0,0,1,.5.157.8.8,0,0,1,.315.489Zm-1.79-8.867A.893.893,0,0,1-.787-10.1a.893.893,0,0,1,.655-.273.913.913,0,0,1,.671.273.893.893,0,0,1,.273.655A.866.866,0,0,1,.539-8.8a.927.927,0,0,1-.671.265A.907.907,0,0,1-.787-8.8.866.866,0,0,1-1.061-9.448Z" transform="translate(185 233)" fill="#8c8c8c"/>
  </g>
</svg>
